<svg height="512" viewBox="0 0 64 64" width="512" xmlns="http://www.w3.org/2000/svg" xmlns:xlink="http://www.w3.org/1999/xlink"><linearGradient id="New_Gradient_Swatch_5" gradientUnits="userSpaceOnUse" x1="-1" x2="66.602" y1="42" y2="42"><stop offset="0" stop-color="#4761ac"/><stop offset="1" stop-color="#54c2ef"/></linearGradient><linearGradient id="New_Gradient_Swatch_5-6" x2="66.602" xlink:href="#New_Gradient_Swatch_5" y1="49" y2="49"/><linearGradient id="New_Gradient_Swatch_5-19" x2="66.602" xlink:href="#New_Gradient_Swatch_5" y1="24" y2="24"/><linearGradient id="New_Gradient_Swatch_5-22" x2="66.602" xlink:href="#New_Gradient_Swatch_5" y1="32" y2="32"/><linearGradient id="New_Gradient_Swatch_5-23" x2="66.602" xlink:href="#New_Gradient_Swatch_5" y1="31" y2="31"/><linearGradient id="New_Gradient_Swatch_5-27" x2="66.602" xlink:href="#New_Gradient_Swatch_5" y1="10" y2="10"/><linearGradient id="New_Gradient_Swatch_5-28" x2="66.602" xlink:href="#New_Gradient_Swatch_5" y1="12" y2="12"/><linearGradient id="New_Gradient_Swatch_5-29" x2="66.602" xlink:href="#New_Gradient_Swatch_5" y1="8" y2="8"/><g id="Gradient_outline" data-name="Gradient outline"><path d="m16 38h-8v8h8zm-2 6h-4v-4h4z" fill="url(#New_Gradient_Swatch_5)"/><path d="m18 46h8v-8h-8zm2-6h4v4h-4z" fill="url(#New_Gradient_Swatch_5)"/><path d="m36 38h-8v8h8zm-2 6h-4v-4h4z" fill="url(#New_Gradient_Swatch_5)"/><path d="m38 46h8v-8h-8zm2-6h4v4h-4z" fill="url(#New_Gradient_Swatch_5)"/><path d="m56 38h-8v8h8zm-2 6h-4v-4h4z" fill="url(#New_Gradient_Swatch_5)"/><g fill="url(#New_Gradient_Swatch_5-6)"><path d="m31 48h2v2h-2z"/><path d="m35 48h2v2h-2z"/><path d="m39 48h2v2h-2z"/><path d="m43 48h2v2h-2z"/><path d="m47 48h2v2h-2z"/><path d="m51 48h2v2h-2z"/><path d="m55 48h2v2h-2z"/><path d="m15 48h2v2h-2z"/><path d="m19 48h2v2h-2z"/><path d="m7 48h2v2h-2z"/><path d="m11 48h2v2h-2z"/><path d="m23 48h2v2h-2z"/><path d="m27 48h2v2h-2z"/></g><path d="m47 23h2v2h-2z" fill="url(#New_Gradient_Swatch_5-19)"/><path d="m51 23h2v2h-2z" fill="url(#New_Gradient_Swatch_5-19)"/><path d="m55 23h2v2h-2z" fill="url(#New_Gradient_Swatch_5-19)"/><path d="m57 29h2a1 1 0 0 0 .97-.757l2-8a1 1 0 0 0 -.97-1.243h-3v-2h1a1 1 0 0 0 1-1v-4a1 1 0 0 0 -1-1h-6v-3.184a3 3 0 1 0 -2 0v3.184h-6a1 1 0 0 0 -1 1v4a1 1 0 0 0 1 1h1v2h-3a1 1 0 0 0 -.97 1.243l2 8a1 1 0 0 0 .97.757h2v5h-5v-8h-22v8h-2v-3a1 1 0 0 0 -1-1h-1.382l-2.118-4.23a8.076 8.076 0 0 0 .2-11.477 1 1 0 0 0 -1.414 0l-2.556 2.563-5.414-1.805a1 1 0 0 0 -1.265 1.265l1.8 5.414-2.558 2.563a1 1 0 0 0 0 1.414 7.894 7.894 0 0 0 5.1 2.266l-1.011 2.027h-1.382a1 1 0 0 0 -1 1v3h-2v28h60v-28h-5zm-5-25a1 1 0 1 1 -1 1 1 1 0 0 1 1-1zm-6 9h12v2h-12zm2 4h8v2h-8zm-3.719 4h15.438l-1.5 6h-12.438zm4.719 8h6v5h-6zm-27-1h18v6h-18zm-16.419-10.419 2.568.856-1.712 1.712zm2.389 8.419a6.081 6.081 0 0 1 -3.493-1.063l8.46-8.46a6.081 6.081 0 0 1 1.063 3.493 5.932 5.932 0 0 1 -1.446 3.9l-.654-1.317a1.042 1.042 0 0 0 -1.79 0l-1.71 3.412c-.144.011-.282.035-.43.035zm3.03-.764 2.382 4.764h-4.764zm-5 6.764h10v2h-10zm3 28v-6h2v6zm4 0v-6h2v6zm11 0v-6h7v6zm9 0v-6h7v6zm16 0v-6h2v6zm4 0v-6h2v6zm7 0h-3v-8h-10v8h-5v-6h2v-2h-24v2h2v6h-5v-8h-10v8h-3v-24h56z" fill="url(#New_Gradient_Swatch_5-22)"/><path d="m24 30h2v2h-2z" fill="url(#New_Gradient_Swatch_5-23)"/><path d="m28 30h2v2h-2z" fill="url(#New_Gradient_Swatch_5-23)"/><path d="m32 30h2v2h-2z" fill="url(#New_Gradient_Swatch_5-23)"/><path d="m36 30h2v2h-2z" fill="url(#New_Gradient_Swatch_5-23)"/><path d="m17 11h2.434l2.709 4.515a1 1 0 0 0 1.714-1.03l-2.091-3.485h2.82l1.707 1.707a1 1 0 0 0 1.414-1.414l-1.293-1.293 1.293-1.293a1 1 0 1 0 -1.414-1.414l-1.707 1.707h-2.82l2.091-3.485a1 1 0 0 0 -1.714-1.03l-2.709 4.515h-2.434a1 1 0 0 0 0 2z" fill="url(#New_Gradient_Swatch_5-27)"/><path d="m32 11a1 1 0 0 0 0 2h4a1 1 0 0 0 0-2z" fill="url(#New_Gradient_Swatch_5-28)"/><path d="m31 9h9a1 1 0 0 0 0-2h-9a1 1 0 0 0 0 2z" fill="url(#New_Gradient_Swatch_5-29)"/></g></svg>